#format: frame checksums
#version: 2
#hash: MD5
#tb 0: 1/15
#media_type 0: video
#codec_id 0: rawvideo
#dimensions 0: 320x180
#sar 0: 0/1
#stream#, dts,        pts, duration,     size, hash
0,          0,          0,        1,   172800, 047b1afa3ad96f77a999e7bb58244ae4
0,          1,          1,        1,   172800, 8d82bd3e16e39cf96de6aa664e72f156
0,          2,          2,        1,   172800, 75d648bb7aa5607af123ca15299affb5
0,          3,          3,        1,   172800, bae4796f388af4665720f5b8718837c7
0,          4,          4,        1,   172800, e9be8e3021dd13ef6624a3eddea236b0
0,          5,          5,        1,   172800, 19dd0deed030395bc34d6c1bfd73b594
0,          6,          6,        1,   172800, 4db0649dfb2f7b038ab482a181343d83
0,          7,          7,        1,   172800, 1dc5e57694097b4f259200e837cdfba6
0,          8,          8,        1,   172800, fc4a99b1baeafc5dfa0942cab160e752
0,          9,          9,        1,   172800, b797334fed11069809796f0b760b4285
0,         10,         10,        1,   172800, 0c73d672dbf92eb63474c78169e3ed02
0,         11,         11,        1,   172800, 57bfc973c1951fafe96a90b42bd439b7
0,         12,         12,        1,   172800, 01da20827d40f282712aa3f0cc182953
0,         13,         13,        1,   172800, 395411e0dc69c8828c4b93e66fcc2c8e
0,         14,         14,        1,   172800, a04a6edfb118849076a496be457ff425
0,         15,         15,        1,   172800, fa0f3b65465c1fab3920d5a7284d0948
0,         16,         16,        1,   172800, 844bb47f2fb07eb37c9643db92090f2f
0,         17,         17,        1,   172800, 21f8f6beba877c2722a3a0c0d70d9f61
0,         18,         18,        1,   172800, c2953929e8c3a99021d0d590e7a490aa
0,         19,         19,        1,   172800, c9fb2ce726d8fc0bfc10aba827710f6c
0,         20,         20,        1,   172800, 1fc1bc3702283004460f37fdb5418188
0,         21,         21,        1,   172800, 6bd87242ca5776fe4ea979773fe24d6a
0,         22,         22,        1,   172800, be08380aef14bc8a6d9b070a130a2977
0,         23,         23,        1,   172800, 24590069e5d6ca25506956cc2cc9d7a9
0,         24,         24,        1,   172800, 85ee1c511ea5ac15c1b19ea289ae94cf
0,         25,         25,        1,   172800, 3c715a8e079b0990699b9c4d22d19c8c
0,         26,         26,        1,   172800, 75e33b520cca587a82836c97e106dbac
0,         27,         27,        1,   172800, a7226bd3439c0d8d328d8a8482d160d7
0,         28,         28,        1,   172800, 0be449f80ca330f4962317e889e5d607
0,         29,         29,        1,   172800, fea9ca94c139367679b82cab54df41e2
0,         30,         30,        1,   172800, 8957c28c51b46a4cc8b1390fc9741a23
0,         31,         31,        1,   172800, ebf67cac554440baaa20fe9c119db251
0,         32,         32,        1,   172800, 3788c6dba286f4eeecd2bfb950b652f7
0,         33,         33,        1,   172800, 7e78391b11bf820acacfd21d4635d70e
0,         34,         34,        1,   172800, 1cb881bb5350303e1eed2fb3d00912c2
0,         35,         35,        1,   172800, 732c4ac417912d4d9ac335e44f695f0b
0,         36,         36,        1,   172800, f018185427139412e400134501946b3b
0,         37,         37,        1,   172800, 62104bdb4aa5cfef130447dd8b0f5a68
0,         38,         38,        1,   172800, 2011658dfd9cbb7e60e949976bc32b36
0,         39,         39,        1,   172800, 36d28080dfab9e01a616701872620612
0,         40,         40,        1,   172800, 3987c53ac1aa16396d07c144767d57c8
0,         41,         41,        1,   172800, eed919200df383d3c9a641e82d4fb453
0,         42,         42,        1,   172800, 6b968f9c95633b1021e16251c42a0c9f
0,         43,         43,        1,   172800, 6a50112951c5ef50295edce0c118a285
0,         44,         44,        1,   172800, 50bf92aa16fddc5be02be851d4d15256
0,         45,         45,        1,   172800, 1e6ff06346d84b3e793b2d336bb10a69
0,         46,         46,        1,   172800, c22df2bd0bedcf02f69cdcafc09980eb
0,         47,         47,        1,   172800, a4b1eb8475d05318c6f8180e32847d8f
0,         48,         48,        1,   172800, 97de7c4c0220e4f39032db35be352e76
0,         49,         49,        1,   172800, e43e670f4732da6b837bd7676d7a9a49
0,         50,         50,        1,   172800, abf2e0e0889f02af24dfab1b5bec1b47
0,         51,         51,        1,   172800, cb6679edc38db36d5b678184ef919f6d
0,         52,         52,        1,   172800, 930cadb73af4997812fbc72a7c9c25f3
0,         53,         53,        1,   172800, 402b2de56defc6e4be5156fec5f5fa73
0,         54,         54,        1,   172800, f1d3afb138abb43389ed047da5788957
0,         55,         55,        1,   172800, d5f0118476ac8bd0558ae2909d126d59
0,         56,         56,        1,   172800, 6cc59d98b934fd69a43daf89ccfb34dd
0,         57,         57,        1,   172800, 77a0876315dfb35cabe6a3d154eaea0f
0,         58,         58,        1,   172800, 8d178ab3e6e796c696c2d4f1f3531506
0,         59,         59,        1,   172800, d8d67fe200e5d7c635d096f389c37090
0,         60,         60,        1,   172800, eb836536eba6267ab6119a1bc3e4bf4d
0,         61,         61,        1,   172800, ba456c2ba80aa2adb917d5845fe71c1e
0,         62,         62,        1,   172800, 83511336bc57fece18f8c5491087c532
0,         63,         63,        1,   172800, ab29272cf975b135598575b03e48a233
0,         64,         64,        1,   172800, f1340fa2d1367f565fb6cae16f997929
0,         65,         65,        1,   172800, 25c97435315ce5d43aa2e8b11489eeda
0,         66,         66,        1,   172800, bab9375b5b56392b004af8b36c9b3392
0,         67,         67,        1,   172800, 16dc0156b3adf0e9c419ba790b25bc3d
0,         68,         68,        1,   172800, 77c89d8d14e6795dc3f9d98a796858f5
0,         69,         69,        1,   172800, 6e73f6b0a0dc281bea23d3f9a9c843e0
0,         70,         70,        1,   172800, 6e95dc7593bef9b90583a9916c1183c2
0,         71,         71,        1,   172800, 27464d670967dee13a51a397f9cce270
0,         72,         72,        1,   172800, f7fdfcbc734352f9e783b2edb95020db
0,         73,         73,        1,   172800, adc3639b29c4ee7fe216ab3fdcf57f2a
0,         74,         74,        1,   172800, 66d602709ded92277bfa0e7d25342766
0,         75,         75,        1,   172800, d119a89d3e95286efe66049d86938c01
0,         76,         76,        1,   172800, e0a6939ca8a26ba6241066080e7807f0
0,         77,         77,        1,   172800, b804a035ed9d8b0f1f19fb38892748bc
0,         78,         78,        1,   172800, df3fed6ba1b26f30db73c01448a5468e
0,         79,         79,        1,   172800, b5ceb41b4332baa614411db8496aa29e
0,         80,         80,        1,   172800, 6573095256af7f06313d9b688d8e5c60
0,         81,         81,        1,   172800, 83854c7ae4cbda12ceb53f9b1751dadb
0,         82,         82,        1,   172800, ec02db93ea6f619d2ba3392487c3bc08
0,         83,         83,        1,   172800, 0a937ca397299e7c09c79a6022f18f21
0,         84,         84,        1,   172800, 7d28a076deb207959df8813c9e15b26f
0,         85,         85,        1,   172800, 72d53dfdb87e3e95f271ed3041ed7c52
0,         86,         86,        1,   172800, 78988b39940a0778d58d916853ebe6bf
0,         87,         87,        1,   172800, 23af176ba99173b8550a356117095f1b
0,         88,         88,        1,   172800, 5fb89fb6efd279cb1d915fb3b26c7918
0,         89,         89,        1,   172800, ed1522ed709fde68590a88df48d94c06
0,         90,         90,        1,   172800, d851cf01beac6930c275c683e0ac78e7
0,         91,         91,        1,   172800, 29d2b544da837bd78ace7c79e592bc03
0,         92,         92,        1,   172800, cbaf87474af00cea3be060d7b7e3053c
0,         93,         93,        1,   172800, 4ab43976491e0e059103e0d0756d7e47
0,         94,         94,        1,   172800, 8199a2743252557efeac8da149aba818
0,         95,         95,        1,   172800, 8350397c8eacd054b57e2ef174f0677b
0,         96,         96,        1,   172800, f48f531ae34f9d00a64d1d1c5f37b7b2
0,         97,         97,        1,   172800, 52ab0a2d51eb9c05ef7c4ab6268a548d
0,         98,         98,        1,   172800, 75055fe1420d06be4a1f37cc17ccd36e
0,         99,         99,        1,   172800, 1c6f60d3f0c467e66580e94f52440b1e
0,        100,        100,        1,   172800, 1afe2ae57ae8c0ea4d276a9dbd8a8e75
0,        101,        101,        1,   172800, a339522905b2e911d5036c4645d2d5a7
0,        102,        102,        1,   172800, e4b78801296c0edd491d972047064658
0,        103,        103,        1,   172800, ed66e82f8ae6434ab19f5aff4b7e187b
0,        104,        104,        1,   172800, 2fa4342c98964404e0401d30a318b360
0,        105,        105,        1,   172800, 412ae0007e6f18a1eaf89e6c8b634052
0,        106,        106,        1,   172800, 22cef5b9d9b2c3c24da4cdd54d3e48e6
0,        107,        107,        1,   172800, 7c19c99b54438a4c52f920a09815d041
0,        108,        108,        1,   172800, 7c19c99b54438a4c52f920a09815d041
0,        109,        109,        1,   172800, 7c19c99b54438a4c52f920a09815d041
0,        110,        110,        1,   172800, 7c19c99b54438a4c52f920a09815d041
0,        111,        111,        1,   172800, 7c19c99b54438a4c52f920a09815d041
0,        112,        112,        1,   172800, 7c19c99b54438a4c52f920a09815d041
0,        113,        113,        1,   172800, 7c19c99b54438a4c52f920a09815d041
0,        114,        114,        1,   172800, 7c19c99b54438a4c52f920a09815d041
0,        115,        115,        1,   172800, 7c19c99b54438a4c52f920a09815d041
0,        116,        116,        1,   172800, 7c19c99b54438a4c52f920a09815d041
0,        117,        117,        1,   172800, 7c19c99b54438a4c52f920a09815d041
0,        118,        118,        1,   172800, 7c19c99b54438a4c52f920a09815d041
0,        119,        119,        1,   172800, 7c19c99b54438a4c52f920a09815d041
0,        120,        120,        1,   172800, 7c19c99b54438a4c52f920a09815d041
0,        121,        121,        1,   172800, 7c19c99b54438a4c52f920a09815d041
0,        122,        122,        1,   172800, 7c19c99b54438a4c52f920a09815d041
0,        123,        123,        1,   172800, 7c19c99b54438a4c52f920a09815d041
0,        124,        124,        1,   172800, f9ffb506d480d5a2c32f58a82ae162ea
0,        125,        125,        1,   172800, 9df315d1a81034663359edc463370f75
0,        126,        126,        1,   172800, d7025d4b83b88eee0ddc9c6c2e5626fc
0,        127,        127,        1,   172800, 435653bb9a79d655355861194ffed71b
0,        128,        128,        1,   172800, a5027ad240d9fd81fcaa0245bc3dc62a
0,        129,        129,        1,   172800, 9d221a937cbda32419b38f3fd5820c54
0,        130,        130,        1,   172800, 31dae6c4d8ca5b9bfbd9f27e9a657065
0,        131,        131,        1,   172800, 2dda2a20058080570e553a790eb398a5
0,        132,        132,        1,   172800, 7706aa47799f3592424df97f8cd25312
0,        133,        133,        1,   172800, e3ad6103721ec1b951cf9b8482af31c5
0,        134,        134,        1,   172800, f7c100459c93c2625c8d2ef94ba734c3
0,        135,        135,        1,   172800, 0dd6f0f1bd9c0b2fc0cd137082f6ce89
0,        136,        136,        1,   172800, 1c55e1a341a16f135eb70ab23f3ebd02
0,        137,        137,        1,   172800, e976baf35c7fcefeb9c73c1f3f9b4816
0,        138,        138,        1,   172800, 29121256b5a0ea7580c0f3675aea53f5
0,        139,        139,        1,   172800, c9c8aff0e435f220b2fe679b89161ed1
0,        140,        140,        1,   172800, 29492dbfd0b86a878576a1f45aba811c
0,        141,        141,        1,   172800, eeaf9b1eb6bff59bd5bb259869177bee
0,        142,        142,        1,   172800, e86d8f2f6cd991ccec2d0bb7f506257b
0,        143,        143,        1,   172800, 0750fc611ac066514959a1689369e906
0,        144,        144,        1,   172800, 3440049a39a805898f87521c11c0e717
0,        145,        145,        1,   172800, a7e71b68ed454a7b7be80d45ee8efea3
0,        146,        146,        1,   172800, 5d0911eb0c94c142e30aa444da3cc011
0,        147,        147,        1,   172800, 9048931f19c6e986b220ec5b62a7de5d
0,        148,        148,        1,   172800, e2987c465fe438c578cbda39bd26d3d7
0,        149,        149,        1,   172800, c84acd544eba71b2e912d27f0ff97837
0,        150,        150,        1,   172800, 8c390ea873dc298dc3fde2e415588793
0,        151,        151,        1,   172800, fd54293009c1fa1bd1ca200c229ec28e
0,        152,        152,        1,   172800, 4e3cfc2ef92734aeeb2811cc090ac974
0,        153,        153,        1,   172800, cf81120c7a65ec10fa203921ea7ded6a
0,        154,        154,        1,   172800, 3dc5a3b3a071068707e968d3ff0ba95e
0,        155,        155,        1,   172800, dfae4dcfa2f3383f5aeed84ae0bb8368
0,        156,        156,        1,   172800, c6888f5d3087e94816bc2b09cd646c31
0,        157,        157,        1,   172800, 6fb9bcc9c170f6cad097fa73bd2fb4fc
0,        158,        158,        1,   172800, 8f86211887eed24afd0a69b0c3f724e3
0,        159,        159,        1,   172800, 3852d9bc1fd622246c89f0c52466b032
0,        160,        160,        1,   172800, 9c623db4d722a7e99b53803acad2973d
0,        161,        161,        1,   172800, 3609930a8836b3376ca80f1768d3fcf5
0,        162,        162,        1,   172800, 6894d0b362d0a946f9629470af6d37a1
0,        163,        163,        1,   172800, a21abbdc5f21e64498f74fbfb716e8ab
0,        164,        164,        1,   172800, 5cdd18ada9db8620f398c32ef9b4786d
0,        165,        165,        1,   172800, 725e4c627f8327d2c4959e54f4b82ada
0,        166,        166,        1,   172800, c6d8c967ab3807995509e98524507ee1
0,        167,        167,        1,   172800, ecb3f2f1657bfe7b363493e420e02973
0,        168,        168,        1,   172800, a257076bc53f0d03a50d101646cb392d
0,        169,        169,        1,   172800, 596aa324024ec9a449ef5e7f90514be1
0,        170,        170,        1,   172800, 2df88c5058ddc517da63c5bdfeead797
0,        171,        171,        1,   172800, a088fb1d8d23ed62bbe15062767cce6d
0,        172,        172,        1,   172800, 53925c778565004e63465dfa35d4236a
0,        173,        173,        1,   172800, 473fd752eb63d944b01c1f482635eb70
0,        174,        174,        1,   172800, 0b8b6002a61885b09a131920ea1c7171
0,        175,        175,        1,   172800, 3f8a4095c051be8fdb2c472578c2c60a
0,        176,        176,        1,   172800, 19fa3a1bde4fad35e3c627093d61409e
0,        177,        177,        1,   172800, 9cbcf2e0d887c39c2e19ae94bc101b6e
0,        178,        178,        1,   172800, bd435b5571132db46593bb11a62975b7
0,        179,        179,        1,   172800, 8496cd45841263a418383c0c5d468585
0,        180,        180,        1,   172800, 95c2759d347c80c242c24bdaf1e4c575
0,        181,        181,        1,   172800, c9d8498bb87c92eee675774783fc7b63
0,        182,        182,        1,   172800, 214b2912ff7f81c5a7a59e7a74c9a8d5
0,        183,        183,        1,   172800, b19ce6407b8a7bb6b9462a8e18fd8fd8
0,        184,        184,        1,   172800, fe61cb0a60daedb944ce8fdcf3cc7e4d
0,        185,        185,        1,   172800, 9388fff9f3ea60d36b238c2e82aa41bc
0,        186,        186,        1,   172800, ebfdf5d56911fef4006106f9163f2377
0,        187,        187,        1,   172800, aeb7b9370416cd8c09f911fd83afbea1
0,        188,        188,        1,   172800, 6eabbadd42d6617a961848eb97e98fd8
0,        189,        189,        1,   172800, 40d88ac7eb93974afc5bc0202087724e
0,        190,        190,        1,   172800, 3729c95f5e000642d0a8087fd08cb892
0,        191,        191,        1,   172800, ebba44a2f38ee2ca19202f921ef5e37f
0,        192,        192,        1,   172800, d492e0040d3facf6d5e7021f6c585387
0,        193,        193,        1,   172800, cef02b4d71badd6cad42146dff1ab69f
0,        194,        194,        1,   172800, 363c2dda6c55b74dc7cff81df804a1b7
0,        195,        195,        1,   172800, d3a5568b932faf70ec27ddca4d7c8c44
0,        196,        196,        1,   172800, afbfe38337937810da1ecc247f65912a
0,        197,        197,        1,   172800, 588b49179aa96d16b220216c4c69e8f2
0,        198,        198,        1,   172800, f4a1cd67d2bea0d3b304e608ab5d95b3
0,        199,        199,        1,   172800, d9eeb1fb1c1043cf9320fa89693436b1
